<?xml version="1.0" encoding="utf-8"?><!-- Uploaded to: SVG Repo, www.svgrepo.com, Generator: SVG Repo Mixer Tools -->
<svg fill="#000000" width="800px" height="800px" viewBox="0 0 24 24" id="add-file-11" data-name="Flat Line" xmlns="http://www.w3.org/2000/svg" class="icon flat-line"><path id="secondary" d="M12.5,19A6.5,6.5,0,0,0,6,12.5V5H8V3H19a1,1,0,0,1,1,1V20a1,1,0,0,1-1,1H12.18A6.3,6.3,0,0,0,12.5,19Z" style="fill: rgb(44, 169, 188); stroke-width: 2;"></path><path id="primary" d="M4,19H8M6,21V17m8-4h2m0-4H10" style="fill: none; stroke: rgb(0, 0, 0); stroke-linecap: round; stroke-linejoin: round; stroke-width: 2;"></path><path id="primary-2" data-name="primary" d="M12,21h7a1,1,0,0,0,1-1V4a1,1,0,0,0-1-1H8L6,5v8" style="fill: none; stroke: rgb(0, 0, 0); stroke-linecap: round; stroke-linejoin: round; stroke-width: 2;"></path><polygon id="primary-3" data-name="primary" points="6 5 8 5 8 3 6 5" style="fill: none; stroke: rgb(0, 0, 0); stroke-linecap: round; stroke-linejoin: round; stroke-width: 2;"></polygon></svg>