<?xml version="1.0" ?><!-- Uploaded to: SVG Repo, www.svgrepo.com, Generator: SVG Repo Mixer Tools -->
<svg width="800px" height="800px" viewBox="0 0 2050 2050" data-name="Layer 2" id="Layer_2" xmlns="http://www.w3.org/2000/svg"><defs><style>.cls-1{fill:#67baeb;}.cls-2{fill:#f8881b;}.cls-3{fill:#f08000;}.cls-4{fill:#f4c23f;}.cls-5{fill:#f4a93f;}.cls-6{fill:#fad564;}.cls-7{fill:#cf6b00;}.cls-8{fill:#46a1f8;}.cls-9{fill:#3171ad;}.cls-10{fill:#4d4c78;}.cls-11{fill:#323150;}.cls-12{fill:#64639c;}.cls-13{fill:#83d0fb;}</style></defs><title/><path class="cls-1" d="M1107,1150.8h126.6l274.3-673.5a74.5,74.5,0,0,0-2.5-61.6L1356,118.2Z"/><circle class="cls-2" cx="1025" cy="1576.9" r="350.8"/><circle class="cls-3" cx="1025" cy="1576.9" r="310"/><circle class="cls-4" cx="1025" cy="1576.9" r="275.1"/><path class="cls-5" d="M1059.9,1844c-151.9,0-275.1-123.1-275.1-275.1,0-124.6,83-229.9,196.7-263.7-131.2,20.9-231.6,134.5-231.6,271.7,0,151.9,123.2,275,275.1,275a278.3,278.3,0,0,0,78.4-11.3A283.7,283.7,0,0,1,1059.9,1844Z"/><path class="cls-6" d="M1038.7,1302.1c5.9,146.5,117.9,265.5,261.3,282.4,0-2.5.1-5.1.1-7.6C1300.1,1429.5,1184.2,1309.3,1038.7,1302.1Z"/><path class="cls-5" d="M1024.3,1412.2l38.2,77.5a20.9,20.9,0,0,0,15.7,11.4l85.4,12.4c17.1,2.5,23.9,23.5,11.6,35.5l-61.8,60.3a20.5,20.5,0,0,0-6,18.4l14.6,85.1c2.9,17.1-15,30.1-30.3,22l-76.4-40.2a20.8,20.8,0,0,0-19.4,0l-76.4,40.2c-15.3,8.1-33.2-4.9-30.3-22l14.6-85.1a20.7,20.7,0,0,0-6-18.4L836,1549c-12.4-12-5.5-33,11.6-35.5l85.4-12.4a20.9,20.9,0,0,0,15.7-11.4l38.2-77.5C994.5,1396.8,1016.6,1396.8,1024.3,1412.2Z"/><path class="cls-7" d="M1044.4,1407.5l37.1,75.1a20.2,20.2,0,0,0,15.2,11.1l82.9,12c16.6,2.5,23.3,22.9,11.2,34.6l-60,58.4a20.7,20.7,0,0,0-5.8,18l14.2,82.5a20.3,20.3,0,0,1-29.4,21.4l-74.1-39a20.4,20.4,0,0,0-18.9,0l-74.1,39a20.3,20.3,0,0,1-29.4-21.4l14.2-82.5a20.5,20.5,0,0,0-5.9-18l-60-58.4c-12-11.7-5.3-32.1,11.3-34.6l82.9-12a20.2,20.2,0,0,0,15.2-11.1l37.1-75.1A20.2,20.2,0,0,1,1044.4,1407.5Z"/><path class="cls-1" d="M943,1150.8H816.4L542.1,477.3a74.5,74.5,0,0,1,2.5-61.6L694,118.2Z"/><path class="cls-8" d="M544.6,415.7a74.5,74.5,0,0,0-2.5,61.6l274.3,673.5h89.4L578.7,347.7Z"/><path class="cls-8" d="M1505.4,415.7a74.5,74.5,0,0,1,2.5,61.6l-274.3,673.5h-89.4l327.1-803.1Z"/><polygon class="cls-8" points="694 118.2 773.5 447.8 1276.5 447.8 1356 118.2 694 118.2"/><polygon class="cls-9" points="694 118.2 773.5 447.8 830.5 447.8 694 118.2"/><polygon class="cls-9" points="1356 118.2 1276.5 447.8 1219.5 447.8 1356 118.2"/><rect class="cls-10" height="126.6" rx="48.9" ry="48.9" width="790.9" x="629.6" y="1140.5"/><path class="cls-11" d="M733.2,1214.1a48.7,48.7,0,0,1-48.8-48.8v-24.8h-6a48.8,48.8,0,0,0-48.8,48.9v28.9a48.8,48.8,0,0,0,48.8,48.8h693.2a48.8,48.8,0,0,0,48.8-48.8v-4.2Z"/><rect class="cls-12" height="45.18" rx="22.6" ry="22.6" width="458.3" x="855.5" y="1140.5"/><rect class="cls-13" height="205.55" rx="37.9" ry="37.9" transform="translate(-58.8 176.6) rotate(-13.7)" width="75.9" x="666.6" y="229.9"/><rect class="cls-13" height="102.77" rx="37.9" ry="37.9" transform="translate(-101.3 193) rotate(-13.7)" width="75.9" x="713.3" y="465.9"/><rect class="cls-13" height="255.97" rx="37.9" ry="37.9" transform="translate(2505.8 1139.4) rotate(-166.3)" width="75.9" x="1283.5" y="290.9"/><rect class="cls-13" height="102.77" rx="37.9" ry="37.9" transform="translate(2253.5 1818.4) rotate(-166.3)" width="75.9" x="1198.2" y="722.2"/><rect class="cls-1" height="66.57" rx="33.3" ry="33.3" width="528.5" x="739.8" y="118.2"/><rect class="cls-13" height="33.29" rx="16.6" ry="16.6" width="255" x="830.5" y="118.2"/></svg>