<?xml version="1.0" encoding="iso-8859-1"?>
<!-- Uploaded to: SVG Repo, www.svgrepo.com, Generator: SVG Repo Mixer Tools -->
<svg height="800px" width="800px" version="1.1" id="Layer_1" xmlns="http://www.w3.org/2000/svg" xmlns:xlink="http://www.w3.org/1999/xlink" 
	 viewBox="0 0 392.598 392.598" xml:space="preserve">
<g>
	<path style="fill:#FFFFFF;" d="M207.903,207.095c-19.846,19.653-32.194,46.933-32.194,76.994
		c0.065,8.145,1.034,15.903,2.715,23.467H75.313V207.095H207.903z"/>
	<path style="fill:#FFFFFF;" d="M91.669,78.707V21.754h146.23v56.954c0,6.012-4.848,10.925-10.925,10.925H102.529
		C96.517,89.568,91.669,84.719,91.669,78.707z"/>
	<path style="fill:#FFFFFF;" d="M304.291,57.503c2.004,2.004,3.168,4.848,3.168,7.758v113.067
		c-7.564-1.681-15.386-2.651-23.402-2.651c-15.838,0-30.836,3.491-44.347,9.568H64.453c-6.012,0.065-10.925,4.913-10.925,10.99
		v111.321H32.711c-6.012,0-10.925-4.848-10.925-10.861V32.679c0-6.012,4.848-10.925,10.925-10.925h37.107v56.954
		c0,17.972,14.675,32.711,32.711,32.711h124.38c18.036,0,32.711-14.675,32.711-32.711V21.754h4.396c2.909,0,5.624,1.164,7.693,3.168
		L304.291,57.503z"/>
</g>
<path style="fill:#56ACE0;" d="M102.465,89.568h124.38c6.012,0,10.925-4.848,10.925-10.925V21.689H91.539v56.954
	C91.539,84.719,96.453,89.568,102.465,89.568z"/>
<path style="fill:#FFC10D;" d="M370.747,284.089c0-47.774-38.853-86.562-86.562-86.562s-86.562,38.853-86.562,86.562
	s38.917,86.562,86.562,86.562S370.747,331.863,370.747,284.089z"/>
<path style="fill:#194F82;" d="M196.267,70.82c6.012,0,10.925-4.848,10.925-10.925V39.208c0-6.012-4.848-10.925-10.925-10.925
	s-10.925,4.848-10.925,10.925v20.687C185.341,65.972,190.255,70.82,196.267,70.82z"/>
<path style="fill:#56ACE0;" d="M175.709,284.089c0.065,8.145,1.034,15.903,2.715,23.467H75.313V207.095h132.59
	C188.057,226.747,175.709,254.028,175.709,284.089z"/>
<path style="fill:#FFFFFF;" d="M311.467,294.626c-6.012,0-10.925-4.848-10.925-10.925v-43.83h-32.905v43.83
	c0,6.012-4.848,10.925-10.925,10.925h-1.939l29.285,29.285l29.285-29.285H311.467z"/>
<g>
	<path style="fill:#194F82;" d="M339.782,272.711h-17.39v-43.83c0-6.012-4.848-10.925-10.925-10.925h-54.691
		c-6.012,0-10.925,4.848-10.925,10.925v43.83h-17.39c-8.469-0.129-15.192,11.378-7.758,18.618l55.661,55.661
		c4.267,4.008,10.925,4.396,15.451,0l55.661-55.661C355.362,282.537,347.152,272.453,339.782,272.711z M254.836,294.626h1.939
		c6.012,0,10.925-4.848,10.925-10.925v-43.83h32.905v43.83c0,6.012,4.848,10.925,10.925,10.925h1.939l-29.285,29.285
		L254.836,294.626z"/>
	<path style="fill:#194F82;" d="M329.438,185.697V65.261c0-8.727-3.426-16.937-9.568-23.079L287.289,9.6
		c-6.206-6.206-14.481-9.568-23.208-9.568H32.711C14.675,0.032,0,14.707,0,32.743V296.76c0,17.907,14.675,32.646,32.711,32.646
		h153.083c17.131,37.172,54.756,63.16,98.392,63.16c59.733,0,108.412-48.614,108.412-108.412
		C392.533,240.517,366.545,202.958,329.438,185.697z M197.56,284.089c0-47.774,38.917-86.562,86.562-86.562
		s86.562,38.853,86.562,86.562s-38.853,86.562-86.562,86.562S197.56,331.863,197.56,284.089z M178.424,307.556H75.313V207.16h132.59
		c-19.846,19.653-32.194,46.933-32.194,76.994C175.774,292.234,176.743,299.992,178.424,307.556z M237.834,21.754v56.954
		c0,6.012-4.848,10.925-10.925,10.925h-124.38c-6.012,0-10.925-4.848-10.925-10.925V21.754H237.834z M53.527,196.234v111.321H32.711
		c-6.012,0-10.925-4.848-10.925-10.925V32.679c0-6.012,4.848-10.925,10.925-10.925h37.107v56.954
		c0,18.036,14.675,32.711,32.711,32.711h124.38c18.036,0,32.711-14.675,32.711-32.711V21.754h4.396c2.909,0,5.624,1.164,7.758,3.168
		l32.582,32.582c2.004,2.004,3.168,4.848,3.168,7.758v113.067c-7.564-1.681-15.386-2.651-23.402-2.651
		c-15.838,0-30.836,3.491-44.347,9.568H64.453C58.44,185.309,53.527,190.222,53.527,196.234z"/>
</g>
</svg>